<?xml version="1.0" encoding="utf-8"?>
<!-- Generator: Adobe Illustrator 16.0.0, SVG Export Plug-In . SVG Version: 6.00 Build 0)  -->
<!DOCTYPE svg PUBLIC "-//W3C//DTD SVG 1.1//EN" "http://www.w3.org/Graphics/SVG/1.1/DTD/svg11.dtd">
<svg version="1.1" id="Layer_1" xmlns="http://www.w3.org/2000/svg" xmlns:xlink="http://www.w3.org/1999/xlink" x="0px" y="0px"
	 width="132.795px" height="132.796px" viewBox="0 0 132.795 132.796" enable-background="new 0 0 132.795 132.796"
	 xml:space="preserve">
<g>
	<g>
		<path fill="#FFF200" d="M76.349,128.674c-5.496,5.497-14.406,5.497-19.903,0L4.122,76.349c-5.496-5.496-5.496-14.406,0-19.902
			L56.446,4.123c5.497-5.497,14.407-5.497,19.903,0l52.325,52.324c5.496,5.497,5.496,14.407,0,19.902L76.349,128.674z"/>
		<path fill="#FFF200" stroke="#000000" stroke-width="3.2927" stroke-miterlimit="10" d="M75.711,124.681
			c-5.144,5.143-13.482,5.143-18.626,0L8.115,75.712c-5.143-5.144-5.143-13.483,0-18.627L57.084,8.116
			c5.144-5.143,13.482-5.143,18.626,0l48.969,48.969c5.143,5.144,5.143,13.483,0,18.627L75.711,124.681z"/>
	</g>
	<g>
		<g>
			<path fill="none" stroke="#000000" stroke-width="13" stroke-miterlimit="10" d="M83.81,105.649c0,0,3.469-36.128-25.48-56.609"
				/>
			<g>
				<polygon points="71.366,34.703 32.616,37.985 54.829,69.906 				"/>
			</g>
		</g>
	</g>
</g>
</svg>
