<?xml version="1.0" encoding="utf-8"?>
<!-- Generator: Adobe Illustrator 16.0.0, SVG Export Plug-In . SVG Version: 6.00 Build 0)  -->
<!DOCTYPE svg PUBLIC "-//W3C//DTD SVG 1.1//EN" "http://www.w3.org/Graphics/SVG/1.1/DTD/svg11.dtd">
<svg version="1.1" id="Layer_1" xmlns="http://www.w3.org/2000/svg" xmlns:xlink="http://www.w3.org/1999/xlink" x="0px" y="0px"
	 width="132.795px" height="132.796px" viewBox="0 0 132.795 132.796" enable-background="new 0 0 132.795 132.796"
	 xml:space="preserve">
<g>
	<g>
		<path fill="#FFF200" d="M56.446,128.673c5.496,5.498,14.406,5.498,19.904,0l52.324-52.324c5.496-5.497,5.496-14.406-0.002-19.903
			L76.35,4.122c-5.498-5.497-14.408-5.497-19.904,0L4.121,56.446c-5.496,5.497-5.496,14.406,0,19.903L56.446,128.673z"/>
		<path fill="#FFF200" stroke="#000000" stroke-width="3.2927" stroke-miterlimit="10" d="M57.084,124.681
			c5.145,5.143,13.483,5.143,18.627,0l48.969-48.969c5.143-5.145,5.143-13.483,0-18.627L75.711,8.116
			c-5.145-5.143-13.483-5.143-18.627,0L8.115,57.085c-5.143,5.144-5.143,13.482,0,18.627L57.084,124.681z"/>
	</g>
	<g>
		<g>
			<path fill="none" stroke="#000000" stroke-width="13" stroke-miterlimit="10" d="M48.984,105.648c0,0-3.469-36.127,25.481-56.609
				"/>
			<g>
				<polygon points="77.965,69.905 100.18,37.984 61.43,34.702 				"/>
			</g>
		</g>
	</g>
</g>
</svg>
