<?xml version="1.0" encoding="utf-8"?>
<!-- Generator: Adobe Illustrator 16.0.0, SVG Export Plug-In . SVG Version: 6.00 Build 0)  -->
<!DOCTYPE svg PUBLIC "-//W3C//DTD SVG 1.1//EN" "http://www.w3.org/Graphics/SVG/1.1/DTD/svg11.dtd">
<svg version="1.1" id="Layer_1" xmlns="http://www.w3.org/2000/svg" xmlns:xlink="http://www.w3.org/1999/xlink" x="0px" y="0px"
	 width="132.795px" height="132.796px" viewBox="0 0 132.795 132.796" enable-background="new 0 0 132.795 132.796"
	 xml:space="preserve">
<g>
	<g>
		<path fill="#FFF200" d="M76.349,128.673c-5.496,5.498-14.406,5.498-19.904,0L4.122,76.349c-5.496-5.496-5.496-14.406,0-19.902
			L56.445,4.123c5.498-5.497,14.408-5.497,19.904,0l52.324,52.324c5.496,5.497,5.496,14.406,0,19.902L76.349,128.673z"/>
		<path fill="#FFF200" stroke="#000000" stroke-width="3.2927" stroke-miterlimit="10" d="M75.71,124.681
			c-5.145,5.143-13.482,5.143-18.626,0L8.115,75.712c-5.143-5.145-5.143-13.483,0-18.627L57.084,8.116
			c5.145-5.143,13.482-5.143,18.626,0l48.969,48.969c5.143,5.144,5.143,13.482,0,18.627L75.71,124.681z"/>
	</g>
	<g>
		<g>
			<line fill="none" stroke="#000000" stroke-width="13" stroke-miterlimit="10" x1="66.397" y1="51.76" x2="66.397" y2="109.985"/>
			<g>
				<polygon points="46.951,57.45 66.397,23.773 85.843,57.45 				"/>
			</g>
		</g>
	</g>
</g>
</svg>
