<?xml version="1.0" encoding="utf-8"?>
<!-- Generator: Adobe Illustrator 16.0.0, SVG Export Plug-In . SVG Version: 6.00 Build 0)  -->
<!DOCTYPE svg PUBLIC "-//W3C//DTD SVG 1.1//EN" "http://www.w3.org/Graphics/SVG/1.1/DTD/svg11.dtd">
<svg version="1.1" id="Layer_1" xmlns="http://www.w3.org/2000/svg" xmlns:xlink="http://www.w3.org/1999/xlink" x="0px" y="0px"
	 width="132.795px" height="132.796px" viewBox="0 0 132.795 132.796" enable-background="new 0 0 132.795 132.796"
	 xml:space="preserve">
<g>
	<path id="path3940" inkscape:connector-curvature="0" fill="#010101" d="M38.806,132.492L0,93.686v-54.88L38.806,0h54.878
		l38.808,38.806v54.88l-38.808,38.806H38.806z"/>
	<path id="path3942" inkscape:connector-curvature="0" fill="#FFFFFF" d="M39.078,131.838L0.656,93.414V39.078L39.078,0.656h54.334
		l38.422,38.422v54.336l-38.422,38.425H39.078z"/>
	<path id="path3944" inkscape:connector-curvature="0" fill="#C02126" d="M40.277,128.936L3.555,92.213V40.279L40.277,3.555h51.937
		l36.72,36.725v51.934l-36.72,36.723H40.277z"/>
	<path id="path3523" inkscape:connector-curvature="0" fill="#FFFFFF" d="M10.084,75.748c0,0.391,0,0.727,0.057,1.063l0.111,1.01
		c0.785,7.005,6.222,11.657,12.444,11.657c6.669,0,12.219-5.438,12.219-12.554c0-4.876-2.522-10.258-6.727-13.621
		c-1.345-1.009-2.746-1.906-4.259-2.746c-2.69-1.457-6.166-2.411-6.166-6.279c0-2.521,2.243-4.763,4.876-4.763
		c2.522,0,4.876,2.242,4.932,4.763h6.222c0-6.053-5.101-11.096-10.986-11.096c-6.278,0-11.377,5.043-11.377,11.376
		c0,3.195,1.513,6.334,3.643,8.296c2.522,2.299,6.222,3.084,8.968,5.269c1.794,1.457,3.195,3.417,3.923,5.659
		c0.28,1.01,0.505,2.02,0.505,3.084c0,3.699-2.634,6.165-5.885,6.165c-1.57,0-2.97-0.561-4.148-1.681
		c-1.064-1.01-1.849-2.41-1.794-5.604H10.084z"/>
	<polygon id="polygon3527" fill="#FFFFFF" points="60.473,49.515 60.473,43.854 38.053,43.854 38.053,49.515 46.068,49.515 
		46.068,88.694 46.068,88.694 52.401,88.694 52.401,49.515 	"/>
	<path id="path3521" inkscape:connector-curvature="0" fill="#FFFFFF" d="M76.951,42.845c-4.82,0-9.026,3.027-10.594,7.454
		c-0.896,2.578-2.242,8.967-2.242,17.43c0,6.109,1.237,12.39,1.684,13.736c0.617,1.795,1.514,3.474,2.8,4.819l0.391,0.393
		c1.684,1.682,4.652,2.971,7.901,2.971c4.039,0,7.738-2.186,9.531-5.323c2.968-5.102,3.477-17.543,3.477-18.833
		c0-10.874-2.578-16.088-2.914-16.648C84.965,45.088,81.267,42.845,76.951,42.845z M76.892,49.178c1.348,0,2.637,0.506,3.536,1.403
		c0.953,0.896,2.188,2.464,2.859,8.628c0.282,2.019,0.395,4.036,0.395,6.052c0,6.279-1.125,11.829-1.856,13.849
		c-1.066,3.082-2.914,4.203-5.042,4.203c-1.906,0-3.309-0.84-4.203-2.355l-0.281-0.561c-0.227-0.449-2.015-5.603-2.015-13.169
		c0-6.615,1.23-12.391,1.902-14.128C73.193,50.242,74.985,49.178,76.892,49.178L76.892,49.178z"/>
	<path id="path3525" inkscape:connector-curvature="0" fill="#FFFFFF" d="M98.082,44.023v44.668h6.217V69.077h7.792
		c5.215,0,10.316-4.374,10.316-12.613c0-6.109-3.59-12.216-9.753-12.44H98.082L98.082,44.023z M104.358,50.246h7.511
		c1.96,0,4.203,1.736,4.203,6.052c0,4.766-1.738,6.221-4.598,6.558h-7.116V50.246L104.358,50.246z"/>
</g>
</svg>
