<?xml version="1.0" encoding="utf-8"?>
<!-- Generator: Adobe Illustrator 16.0.0, SVG Export Plug-In . SVG Version: 6.00 Build 0)  -->
<!DOCTYPE svg PUBLIC "-//W3C//DTD SVG 1.1//EN" "http://www.w3.org/Graphics/SVG/1.1/DTD/svg11.dtd">
<svg version="1.1" xmlns="http://www.w3.org/2000/svg" xmlns:xlink="http://www.w3.org/1999/xlink" x="0px" y="0px"
	 width="676.673px" height="791.307px" viewBox="0 0 676.673 791.307" enable-background="new 0 0 676.673 791.307"
	 xml:space="preserve">
<g id="Layer_4">
	<g>
		<path fill-rule="evenodd" clip-rule="evenodd" fill="#2B3990" d="M0.631,174.649L0.01,781.539c-0.006,5.5,4.49,9.998,9.99,9.996
			l656.849-0.225c5.5-0.002,10-4.504,10-10.004V184.649c0-5.5-3.479-12.855-7.729-16.345L471.807,6.345
			C467.556,2.855,459.577,0,454.077,0H210.642"/>
	</g>
	<g id="Layer_5">
		<circle fill="#A7A9AC" cx="643.486" cy="705.598" r="14.106"/>
		<circle fill="#A7A9AC" cx="643.486" cy="650.574" r="14.106"/>
		<circle fill="#A7A9AC" cx="643.486" cy="595.551" r="14.106"/>
		<circle fill="#A7A9AC" cx="643.486" cy="540.527" r="14.106"/>
		<circle fill="#A7A9AC" cx="31.388" cy="210.386" r="14.106"/>
		<circle fill="#A7A9AC" cx="31.388" cy="265.409" r="14.106"/>
		<circle fill="#A7A9AC" cx="31.388" cy="320.433" r="14.106"/>
		<circle fill="#A7A9AC" cx="31.388" cy="375.456" r="14.106"/>
		<circle fill="#A7A9AC" cx="31.388" cy="430.48" r="14.106"/>
		<circle fill="#A7A9AC" cx="31.388" cy="485.504" r="14.106"/>
		<circle fill="#A7A9AC" cx="31.388" cy="540.527" r="14.106"/>
		<circle fill="#A7A9AC" cx="31.388" cy="595.551" r="14.106"/>
		<circle fill="#A7A9AC" cx="31.388" cy="650.574" r="14.106"/>
		<circle fill="#A7A9AC" cx="31.388" cy="705.598" r="14.106"/>
		<circle fill="#A7A9AC" cx="643.486" cy="210.386" r="14.106"/>
		<circle fill="#A7A9AC" cx="643.486" cy="265.409" r="14.106"/>
		<circle fill="#A7A9AC" cx="643.486" cy="320.433" r="14.106"/>
		<circle fill="#A7A9AC" cx="643.486" cy="375.456" r="14.106"/>
		<circle fill="#A7A9AC" cx="643.486" cy="430.48" r="14.106"/>
		<circle fill="#A7A9AC" cx="643.486" cy="485.504" r="14.106"/>
	</g>
	<g id="Layer_6">
		<path fill-rule="evenodd" clip-rule="evenodd" fill="#F4F4F5" d="M480.851,624.259c-22.032,0-42.388-0.324-62.718,0.234
			c-5.002,0.137-13.733-4.756-14.095,6.467c-0.308,9.57,3.421,16.426,13.444,18.305c7.025,1.316,14.411,0.574,19.093-4.848
			c5.978-6.928,12.994-8.105,21.111-7.26c4.567,0.477,10.982-2.357,13.313,1.557c3.187,5.346-2.865,9.418-6.066,13.283
			c-12.972,15.66-30.288,22.508-50.098,21.947c-28.975-0.824-45.314-21.063-40.438-49.563c5.169-30.201,17.438-55.334,50.193-63.891
			c39.705-10.371,62.891,12.195,53.645,51.859c-0.2,0.861,0.607,1.959,1.222,3.748c6.964-3.217,5.653-10.523,7.676-15.594
			c13.012-32.654,47.073-50.113,77.6-39.223c20.869,7.445,32.602,43.01,20.043,60.393c-2.778,3.852-6.56,2.467-9.931,2.5
			c-17.36,0.176-34.73-0.119-52.084,0.232c-4.191,0.086-10.354-2.902-12.22,3.553c-1.862,6.449,0.133,12.953,5.363,17.133
			c9.049,7.229,19.825,6.994,27.272-0.873c8.936-9.441,19.174-6.402,29.263-7.051c5.851-0.371,7.364,1.74,4.882,7.5
			c-12.663,29.373-64.692,38.98-87.276,16.365C478.948,649.921,481.122,636.067,480.851,624.259z M517.219,604.532
			c10.224,0,19.06,0.383,27.837-0.146c4.91-0.297,12.972,3.43,13.206-5.787c0.179-7.107-3.988-12.793-11.39-15.047
			C535.211,580.003,524.148,587.333,517.219,604.532z M410.438,604.532c10.341,0,19.247,0.361,28.102-0.146
			c4.574-0.266,11.766,3.25,12.759-4.834c0.923-7.512-3.183-13.082-10.477-15.674C428.772,579.595,418.05,586.374,410.438,604.532z"
			/>
		<path fill-rule="evenodd" clip-rule="evenodd" fill="#F4F4F5" d="M354.751,590.858c29.265,23.551,3.572,70.641-28.993,77.025
			c-26.989,5.291-54.468,1.85-81.719,2.611c-6.856,0.191-7.76-3.541-6.56-9.145c9.323-43.531,18.745-87.041,27.717-130.648
			c1.496-7.281,5.776-7.336,11.31-7.305c21.009,0.117,42.021-0.213,63.023,0.135c14.64,0.24,28.595,2.711,34.887,18.705
			c5.508,13.998-0.269,32.547-13.406,43.785C359.026,587.718,356.883,589.22,354.751,590.858z M295.275,643.769
			c7.322-0.373,14.939,0.404,21.903-1.375c12.006-3.066,19.137-11.967,17.872-24.328c-1.19-11.627-11.655-11.701-20.667-12.016
			c-6.813-0.236-13.746,0.709-20.435-0.221c-11.01-1.531-15.581,2.676-17.736,13.539
			C271.414,643.562,270.864,643.454,295.275,643.769z M314.582,550.507c-24.716-0.004-26.388,1.451-28.281,23.209
			c-0.29,3.338-1.141,6.484,3.55,6.391c14.011-0.283,28.232,2.189,41.984-1.455c9.138-2.424,13.826-9.961,12.759-19.068
			c-1.03-8.807-9.231-8.541-15.945-8.979C323.976,550.302,319.269,550.55,314.582,550.507z"/>
		<path fill-rule="evenodd" clip-rule="evenodd" fill="#F4F4F5" d="M251.922,525.136c-17.971,21.305-34.56,41.598-51.924,61.201
			c-5.363,6.055-5.878,10.967-2.775,17.986c8.052,18.203,15.084,36.867,23.362,54.965c4.429,9.682,1.551,11.674-7.917,11.334
			c-32.303-1.156-23.439,5.123-34.662-24.158c-2.779-7.244-5.141-14.643-8.62-24.633c-8.602,10.742-17.311,19.236-23.134,29.387
			c-11.766,20.512-29.092,22.451-51.594,17.428c18.042-21.547,34.875-42.682,52.938-62.703c7.118-7.893,8.105-14.184,3.803-23.578
			c-8.478-18.523-15.796-37.572-24.549-58.715c14.381,2.018,29.583-7.389,38.644,4.938c7.643,10.396,9.561,25.004,15.038,40.676
			c7.451-9.541,14.662-16.506,19.115-24.926C210.935,522.995,228.52,519.683,251.922,525.136z"/>
		<path fill-rule="evenodd" clip-rule="evenodd" fill="#F4F4F5" d="M587.792,490.009c-166.051,0-332.101,0-498.152,0
			c-0.006-0.975-0.009-1.949-0.015-2.922c166.09,0,332.181,0,498.271,0C587.862,488.06,587.829,489.034,587.792,490.009z"/>
		<path fill-rule="evenodd" clip-rule="evenodd" fill="#F4F4F5" d="M89.486,706.669c166.152,0,332.305,0,498.454,0
			c0.007,1.125,0.01,2.254,0.016,3.381c-166.124,0-332.246,0-498.371,0C89.554,708.923,89.52,707.794,89.486,706.669z"/>
		<path fill-rule="evenodd" clip-rule="evenodd" fill="#C8B269" d="M394.64,348.248c9.449-0.003,18.912,0.299,28.343-0.099
			c7.479-0.314,11.84,1.166,11.574,10.162c-0.234,8.006-1.366,12.771-11.161,12.472c-19.929-0.604-39.898-0.506-59.837-0.031
			c-8.586,0.204-10.733-3.46-10.749-11.245c-0.012-7.547,1.425-11.917,10.341-11.399
			C373.615,348.714,384.142,348.251,394.64,348.248z"/>
		<path fill-rule="evenodd" clip-rule="evenodd" fill="#C8B269" d="M282.299,348.257c9.443,0,18.899,0.349,28.321-0.105
			c8.016-0.385,12.608,0.919,12.339,10.825c-0.234,8.722-2.532,12.068-11.642,11.8c-19.39-0.574-38.813-0.395-58.215-0.064
			c-7.96,0.135-12.676-1.015-12.577-10.909c0.09-9.045,3.158-12.105,11.883-11.664C262.348,348.64,272.334,348.254,282.299,348.257z
			"/>
		<path fill-rule="evenodd" clip-rule="evenodd" fill="#C8B269" d="M393.945,403.194c-9.958,0-19.938-0.385-29.869,0.127
			c-7.704,0.395-11.599-1.4-11.3-10.203c0.262-7.716,2.152-11.46,10.742-11.26c19.907,0.466,39.84,0.414,59.751,0.016
			c7.979-0.161,11.22,2.369,11.287,10.699c0.068,8.083-2.328,11.315-10.744,10.772C413.896,402.704,403.904,403.194,393.945,403.194
			z"/>
		<path fill-rule="evenodd" clip-rule="evenodd" fill="#C8B269" d="M281.531,403.19c-9.946,0-19.911-0.379-29.833,0.121
			c-7.896,0.398-11.235-1.925-11.115-10.483c0.111-8.117,2.684-11.115,10.896-10.952c20.41,0.404,40.839,0.478,61.244-0.021
			c9.04-0.222,10.001,4.213,10.119,11.568c0.124,7.503-2.381,10.239-9.906,9.888C302.487,402.821,292.001,403.188,281.531,403.19z"
			/>
		<path fill-rule="evenodd" clip-rule="evenodd" fill="#C8B269" d="M282.166,302.132c-9.937,0.003-19.905-0.469-29.805,0.142
			c-8.74,0.543-11.994-2.304-11.797-11.411c0.182-8.302,3.069-10.856,11.106-10.689c19.868,0.419,39.763,0.531,59.622-0.04
			c8.978-0.256,11.689,2.764,11.636,11.63c-0.052,8.395-2.896,10.97-10.955,10.504C302.067,301.697,292.106,302.132,282.166,302.132
			z"/>
		<path fill-rule="evenodd" clip-rule="evenodd" fill="#C8B269" d="M281.95,336.495c-9.94,0.006-19.908-0.487-29.805,0.148
			c-9.129,0.589-11.538-3.115-11.584-11.803c-0.043-8.787,3.71-10.415,11.325-10.285c20.395,0.357,40.803,0.401,61.195-0.013
			c7.686-0.16,10.054,2.708,9.702,10.045c-0.317,6.634,0.318,12.614-9.458,12.043C302.9,336.017,292.411,336.489,281.95,336.495z"/>
		<path fill-rule="evenodd" clip-rule="evenodd" fill="#C8B269" d="M280.528,437.554c-9.416,0.006-18.862-0.465-28.238,0.143
			c-8.935,0.58-11.748-2.773-11.732-11.652c0.015-8.607,3.38-10.59,11.183-10.439c20.392,0.393,40.803,0.393,61.195,0.004
			c7.5-0.146,10.289,2.387,9.838,9.893c-0.389,6.49,0.595,12.707-9.302,12.184C302.521,437.101,291.511,437.548,280.528,437.554z"/>
		<path fill-rule="evenodd" clip-rule="evenodd" fill="#C8B269" d="M395.295,436.855c-9.462,0.006-18.939-0.352-28.38,0.115
			c-8.157,0.396-12.45-1.324-12.5-11.008c-0.049-9.586,3.951-11.26,12.238-11.068c19.438,0.447,38.899,0.406,58.338,0.021
			c7.554-0.154,10.268,2.492,9.965,10.008c-0.277,6.834-0.129,12.59-9.709,12.049C415.292,436.414,405.281,436.85,395.295,436.855z"
			/>
		<path fill-rule="evenodd" clip-rule="evenodd" fill="#C8B269" d="M392.502,336.495c-8.938,0.006-17.894-0.376-26.8,0.117
			c-8.293,0.457-12.315-1.563-12.396-11.118c-0.077-9.736,4.207-11.127,12.352-10.952c19.439,0.417,38.899,0.414,58.339,0.006
			c7.698-0.164,10.098,2.739,9.86,10.122c-0.226,6.945-0.33,12.478-9.826,11.954C413.552,336.038,403.013,336.489,392.502,336.495z"
			/>
		<path fill-rule="evenodd" clip-rule="evenodd" fill="#C8B269" d="M393.612,302.125c-9.986,0-19.987-0.321-29.955,0.111
			c-7.304,0.314-10.582-2.029-10.163-9.777c0.358-6.631-0.262-12.497,9.478-12.278c20.49,0.459,41.003,0.447,61.49,0.009
			c9.826-0.213,8.975,5.835,9.366,12.374c0.469,7.864-3.081,9.961-10.261,9.666C413.598,301.823,403.599,302.125,393.612,302.125z"
			/>
	</g>
</g>
<g id="Layer_3">
	<path fill-rule="evenodd" clip-rule="evenodd" fill="#7689C4" d="M437.888,16.484c0-6.627-5.372-12-12-12H253.193
		c-6.627,0-12,5.373-12,12v172.089c0,6.627,5.373,12,12,12h172.694c6.628,0,12-5.373,12-12V16.484z"/>
	<circle fill-rule="evenodd" clip-rule="evenodd" fill="#F4F4F5" cx="339.541" cy="102.528" r="66.204"/>
	<g>
		<path fill="#7689C4" d="M372.369,146.083c0,5.5-3.897,7.75-8.66,5l-75.44-43.554c-4.763-2.75-4.763-7.25,0-10l75.44-43.556
			c4.763-2.75,8.66-0.5,8.66,5V146.083z"/>
	</g>
</g>
<g id="Layer_2" display="none">
	<g id="Layer_1" display="inline">
		<g>
			<path fill-rule="evenodd" clip-rule="evenodd" fill="#3E4C6B" d="M11.15,259.829c-3.291-0.019-6.584-0.037-9.878-0.056
				c-0.148-14.415-0.296-28.836-0.444-43.257c3.17-0.049,6.338-0.1,9.514-0.151c1.092,2.332,1.761,5.002,3.334,6.939
				c8.435,10.387,22.341,12.161,31.526,4.251c8.071-6.952,9.499-23.178,2.738-31.135c-8.607-10.131-20.154-10.529-31.238-0.286
				c-4.312,3.983-8.629,7.308-14.267,8.847c-0.577,0.259-1.178,0.353-1.808,0.282c-3.223-19.861,6.279-32.221,21.324-44.665
				C82.3,110.672,141.54,59.399,200.921,8.311c6.875-5.916,13.708-8.329,22.68-8.298C300.411,0.288,377.22,0.297,454.029,0
				c9.009-0.034,15.976,2.379,22.791,8.221c63.872,54.733,127.895,109.292,192.05,163.69c5.748,4.873,7.944,9.977,7.936,17.499
				c-0.188,196.231-0.217,392.463,0.043,588.693c0.012,9.994-2.252,13.451-12.984,13.436c-216.747-0.318-433.497-0.281-650.243-0.08
				c-8.889,0.008-13.32-1.16-12.839-11.744c0.975-21.525,0.521-43.113,0.657-64.678c4.089,0.213,8.176,0.426,12.265,0.633
				c4.691,11.967,12.411,18.141,25.407,12.123c10.171-4.709,14.539-13.035,12.919-24.305c-1.354-9.432-6.807-15.248-16.053-16.645
				c-12.364-1.869-21.555,2.418-25.336,15.246c-3.226,0.014-6.452,0.025-9.681,0.037C0.955,577.16,0.948,452.189,0.942,327.223
				c3.226-0.049,6.458-0.099,9.69-0.148c8.096,15.482,20.962,20.469,32.661,12.651c9.545-6.378,12.148-21.342,5.326-30.619
				c-9.363-12.744-19.732-12.966-34.184-0.226c-3.741,3.297-7.167,6.107-12.444,4.913c-0.314-14.298-0.629-28.589-0.94-42.887
				c3.466,0.031,6.933,0.059,10.399,0.083c2.017,13.601,10.945,18.819,23.402,17.163c11.365-1.508,16.432-9.53,17.364-20.929
				c0.99-12.114-4.762-19.605-15.64-21.863C24.794,242.916,14.744,246.441,11.15,259.829z M337.771,200.323
				c28.414,0,56.836-0.461,85.232,0.234c10.924,0.267,14.394-2.839,14.285-14.054c-0.539-55.768-0.465-111.545-0.049-167.316
				c0.077-10.432-2.106-14.819-13.771-14.701C367.175,5.052,310.872,4.976,254.575,4.53c-10.35-0.082-13.413,3.025-13.33,13.371
				c0.454,56.295,0.534,112.6-0.049,168.893c-0.117,11.551,3.92,14.003,14.501,13.75
				C283.041,199.888,310.412,200.323,337.771,200.323z M487.806,623.561c0.271,11.809-1.902,25.662,9.194,36.775
				c22.584,22.615,74.613,13.008,87.276-16.365c2.482-5.76,0.969-7.871-4.882-7.5c-10.089,0.648-20.327-2.391-29.263,7.051
				c-7.447,7.867-18.224,8.102-27.272,0.873c-5.23-4.18-7.226-10.684-5.363-17.133c1.866-6.455,8.028-3.467,12.22-3.553
				c17.354-0.352,34.724-0.057,52.084-0.232c3.371-0.033,7.152,1.352,9.931-2.5c12.559-17.383,0.826-52.947-20.043-60.393
				c-30.526-10.891-64.588,6.568-77.6,39.223c-2.022,5.07-0.712,12.377-7.676,15.594c-0.614-1.789-1.422-2.887-1.222-3.748
				c9.246-39.664-13.939-62.23-53.645-51.859c-32.756,8.557-45.024,33.689-50.193,63.891c-4.876,28.5,11.464,48.738,40.438,49.563
				c19.81,0.561,37.126-6.287,50.098-21.947c3.201-3.865,9.253-7.938,6.066-13.283c-2.331-3.914-8.746-1.08-13.313-1.557
				c-8.117-0.846-15.134,0.332-21.111,7.26c-4.682,5.422-12.067,6.164-19.093,4.848c-10.023-1.879-13.752-8.734-13.444-18.305
				c0.361-11.223,9.093-6.33,14.095-6.467C445.418,623.236,465.773,623.561,487.806,623.561z M361.707,590.16
				c2.131-1.639,4.275-3.141,6.258-4.836c13.138-11.238,18.914-29.787,13.406-43.785c-6.292-15.994-20.247-18.465-34.887-18.705
				c-21.003-0.348-42.015-0.018-63.023-0.135c-5.533-0.031-9.814,0.023-11.31,7.305c-8.972,43.607-18.394,87.117-27.717,130.648
				c-1.2,5.604-0.296,9.336,6.56,9.145c27.251-0.762,54.73,2.68,81.719-2.611C365.278,660.801,390.972,613.711,361.707,590.16z
				 M258.877,524.438c-23.402-5.453-40.987-2.141-52.275,19.201c-4.453,8.42-11.664,15.385-19.115,24.926
				c-5.477-15.672-7.396-30.279-15.038-40.676c-9.061-12.326-24.262-2.92-38.644-4.938c8.753,21.143,16.071,40.191,24.549,58.715
				c4.302,9.395,3.315,15.686-3.803,23.578c-18.063,20.021-34.896,41.156-52.938,62.703c22.501,5.023,39.828,3.084,51.594-17.428
				c5.823-10.15,14.532-18.645,23.134-29.387c3.479,9.99,5.841,17.389,8.62,24.633c11.223,29.281,2.359,23.002,34.662,24.158
				c9.468,0.34,12.346-1.652,7.917-11.334c-8.278-18.098-15.31-36.762-23.362-54.965c-3.103-7.02-2.588-11.932,2.775-17.986
				C224.317,566.035,240.906,545.742,258.877,524.438z M594.747,489.311c0.037-0.975,0.07-1.949,0.104-2.922
				c-166.091,0-332.181,0-498.271,0c0.006,0.973,0.009,1.947,0.015,2.922C262.646,489.311,428.696,489.311,594.747,489.311z
				 M96.441,705.971c0.034,1.125,0.068,2.254,0.099,3.381c166.125,0,332.247,0,498.371,0c-0.006-1.127-0.009-2.256-0.016-3.381
				C428.746,705.971,262.593,705.971,96.441,705.971z M395.595,347.553c-10.498,0-21.024,0.462-31.488-0.142
				c-8.917-0.518-10.354,3.852-10.341,11.399c0.016,7.784,2.162,11.448,10.749,11.245c19.938-0.475,39.908-0.574,59.837,0.031
				c9.795,0.299,10.927-4.466,11.161-12.472c0.266-8.996-4.096-10.477-11.574-10.162
				C414.507,347.849,405.044,347.547,395.595,347.553z M283.254,347.556c-9.965,0-19.951,0.385-29.891-0.114
				c-8.725-0.441-11.793,2.619-11.883,11.664c-0.099,9.894,4.617,11.044,12.577,10.909c19.402-0.33,38.826-0.509,58.215,0.064
				c9.11,0.269,11.408-3.078,11.642-11.8c0.269-9.906-4.324-11.21-12.339-10.825C302.153,347.908,292.697,347.559,283.254,347.556z
				 M394.9,402.496c9.959,0,19.951-0.49,29.867,0.15c8.416,0.543,10.813-2.689,10.744-10.772
				c-0.067-8.33-3.309-10.859-11.287-10.699c-19.911,0.398-39.844,0.45-59.751-0.016c-8.59-0.2-10.48,3.544-10.742,11.26
				c-0.299,8.802,3.596,10.597,11.3,10.203C374.962,402.111,384.942,402.496,394.9,402.496z M282.486,402.49
				c10.47,0,20.957-0.367,31.405,0.123c7.525,0.352,10.029-2.384,9.906-9.888c-0.117-7.355-1.079-11.791-10.119-11.568
				c-20.404,0.5-40.833,0.426-61.244,0.021c-8.213-0.164-10.785,2.834-10.896,10.952c-0.12,8.559,3.22,10.881,11.115,10.483
				C262.575,402.113,272.54,402.492,282.486,402.49z M283.121,301.434c9.94,0,19.901-0.435,29.808,0.136
				c8.059,0.465,10.902-2.11,10.955-10.504c0.053-8.867-2.658-11.886-11.636-11.63c-19.858,0.571-39.754,0.459-59.622,0.04
				c-8.037-0.167-10.924,2.387-11.106,10.689c-0.197,9.107,3.057,11.954,11.797,11.411
				C263.216,300.965,273.184,301.437,283.121,301.434z M282.905,335.791c10.461,0,20.95-0.472,31.375,0.142
				c9.776,0.571,9.141-5.41,9.458-12.043c0.352-7.337-2.017-10.205-9.702-10.045c-20.392,0.414-40.8,0.37-61.195,0.013
				c-7.614-0.13-11.368,1.499-11.325,10.285c0.046,8.688,2.455,12.392,11.584,11.803
				C262.998,335.309,272.965,335.803,282.905,335.791z M281.483,436.85c10.982,0,21.993-0.447,32.944,0.137
				c9.897,0.523,8.913-5.693,9.302-12.184c0.45-7.506-2.338-10.039-9.838-9.893c-20.392,0.389-40.803,0.389-61.195-0.004
				c-7.803-0.15-11.167,1.832-11.183,10.439c-0.016,8.879,2.797,12.232,11.732,11.652
				C262.621,436.391,272.068,436.861,281.483,436.85z M395.145,436.85c9.986,0,19.997-0.436,29.952,0.123
				c9.58,0.541,9.432-5.215,9.709-12.049c0.303-7.516-2.411-10.162-9.965-10.008c-19.438,0.385-38.899,0.426-58.338-0.021
				c-8.287-0.191-12.288,1.482-12.238,11.068c0.05,9.684,4.343,11.404,12.5,11.008C376.205,436.504,385.683,436.861,395.145,436.85z
				 M393.457,335.791c10.511,0,21.05-0.451,31.529,0.135c9.496,0.524,9.601-5.008,9.826-11.954
				c0.237-7.383-2.162-10.286-9.86-10.122c-19.439,0.407-38.899,0.41-58.339-0.006c-8.145-0.176-12.429,1.215-12.352,10.952
				c0.08,9.555,4.102,11.575,12.396,11.118C375.563,335.42,384.52,335.803,393.457,335.791z M394.567,301.427
				c9.986,0,19.985-0.302,29.956,0.105c7.18,0.296,10.729-1.801,10.261-9.666c-0.392-6.538,0.46-12.586-9.366-12.374
				c-20.487,0.438-41,0.45-61.49-0.009c-9.74-0.219-9.12,5.647-9.478,12.278c-0.419,7.748,2.859,10.091,10.163,9.777
				C374.58,301.106,384.581,301.427,394.567,301.427z M642.242,453.023c13.308,0.172,21.921-7.84,22.424-20.867
				c0.423-10.977-10.778-23.045-21.233-22.873c-11.646,0.191-22.246,10.311-22.878,21.842
				C619.91,442.906,629.767,452.859,642.242,453.023z M620.589,319.512c-1.312,11.417,6.831,21.416,18.643,22.896
				c13.712,1.721,24.105-6.199,25.373-19.331c1.126-11.658-7.837-22.196-20.062-23.587
				C633.236,298.205,621.948,307.639,620.589,319.512z M620.592,540.506c-1.23,10.77,7.741,21.662,18.93,22.982
				c13.696,1.613,23.945-6.434,25.102-19.654c1.196-13.676-7.43-20.441-18.566-23.568
				C635.117,517.189,621.961,528.512,620.592,540.506z M642.344,674.088c13.268,0.129,21.841-7.928,22.316-20.963
				c0.4-10.924-10.267-22.465-21.274-23.02c-10.646-0.537-22.671,11.004-22.757,21.842
				C620.533,663.955,630.355,673.971,642.344,674.088z M664.666,210.696c0.259-11.382-10.208-21.883-21.934-22
				c-11.504-0.116-21.922,10.273-22.202,22.138c-0.293,12.384,8.9,21.17,22.125,21.14
				C655.913,231.949,664.367,223.776,664.666,210.696z M642.603,244.514c-10.865,0.077-22.066,11.399-21.974,22.211
				c0.092,10.841,11.997,22.261,22.695,21.774c11.025-0.503,21.663-11.88,21.339-22.826
				C664.277,252.68,655.667,244.421,642.603,244.514z M642.954,576.105c-10.921-0.084-22.199,10.943-22.325,21.836
				c-0.127,10.736,11.642,22.402,22.344,22.146c10.97-0.262,21.854-11.543,21.693-22.488
				C664.479,584.602,655.997,576.207,642.954,576.105z M642.525,465.574c-10.878,0.117-22.036,11.467-21.896,22.277
				c0.136,10.816,12.126,22.248,22.772,21.715c11.007-0.555,21.613-11.984,21.262-22.918
				C664.244,473.68,655.58,465.434,642.525,465.574z M664.666,708.629c0.068-13.088-8.167-21.625-21.206-21.99
				c-10.939-0.305-22.362,10.357-22.838,21.314c-0.463,10.646,11.054,22.604,21.836,22.668
				C653.308,730.686,664.607,719.494,664.666,708.629z M664.666,377.574c0.336-13.034-7.83-21.928-20.688-22.533
				c-11.55-0.542-23.569,10.979-23.35,22.391c0.194,10.11,11.151,21.212,21.316,21.594
				C652.688,399.434,664.386,388.383,664.666,377.574z M52.101,596.955c0.059-13.086-7.186-20.617-20.068-20.861
				c-13.758-0.262-21.302,7.436-21.308,21.236c-0.009,13.666,8.663,20.088,20.17,22.242
				C40.909,621.451,52.049,608.541,52.101,596.955z M10.771,486.586c0.096,11.584,11.34,24.387,21.364,22.432
				c11.513-2.242,20.093-8.729,20.016-22.385c-0.08-13.746-7.686-21.396-21.478-21.07C17.812,465.867,10.657,473.428,10.771,486.586
				z M10.777,376.112c0.105,11.578,11.387,24.349,21.41,22.372c11.516-2.27,20.068-8.784,19.963-22.434
				c-0.105-13.733-7.729-21.366-21.533-21.018C17.75,355.356,10.654,362.896,10.777,376.112z M32.091,563.568
				c12.886-0.258,20.09-7.789,20.007-20.906c-0.071-11.582-11.038-23.344-21.32-22.863c-10.517,0.49-20.411,12.445-20,24.174
				C11.225,556.809,18.864,563.834,32.091,563.568z M31.666,453.039c12.944-0.096,20.352-7.52,20.435-20.477
				c0.074-11.627-10.572-23.52-20.898-23.344c-10.418,0.176-20.676,12.127-20.432,23.807
				C11.042,445.91,18.583,453.133,31.666,453.039z M52.098,653.93c0.185-11.648-10.227-23.621-20.589-23.67
				c-9.724-0.053-20.358,11.197-20.734,21.934c-0.491,13.928,6.976,21.879,20.583,21.912
				C44.388,674.141,51.892,666.842,52.098,653.93z"/>
			<path fill-rule="evenodd" clip-rule="evenodd" fill="#C05133" d="M0.631,205.254c0.626,0.081,1.228-0.014,1.801-0.282
				c5.314,2.578,10.729,1.374,16.139,0.412c1.518,0.171,3.035,0.342,4.552,0.515c4.349,0.497,11.226-1.238,11.525,4.418
				c0.37,6.939-6.754,5.502-11.538,5.863c-1.524,0.114-3.047,0.242-4.571,0.365c-2.736-0.06-5.471-0.12-8.204-0.18
				c-3.17,0.051-6.338,0.102-9.508,0.151"/>
			<path fill-rule="evenodd" clip-rule="evenodd" fill="#F4F4F5" d="M1.047,270.901c0.315,14.304,0.629,28.596,0.944,42.897
				c-0.422,0.542-0.685,1.15-0.786,1.829"/>
			<path fill-rule="evenodd" clip-rule="evenodd" fill="#303849" d="M11.15,259.829c3.593-13.388,13.644-16.913,25.425-14.467
				c10.877,2.257,16.629,9.749,15.64,21.863c-0.932,11.399-5.999,19.421-17.364,20.929c-12.457,1.656-21.385-3.562-23.402-17.163
				c2.023,0.055,4.043,0.108,6.066,0.151c6.19,9.555,14.359,12.79,23.569,5.021c7.269-6.138,6.726-14.329-0.262-20.472
				c-8.577-7.544-16.266-4.987-22.119,4.305C16.187,259.94,13.67,259.885,11.15,259.829z"/>
			<path fill-rule="evenodd" clip-rule="evenodd" fill="#A0A0A1" d="M18.704,259.996c5.854-9.292,13.542-11.849,22.119-4.305
				c6.988,6.144,7.531,14.334,0.262,20.472c-9.209,7.769-17.379,4.534-23.569-5.021c0.506-0.111,1.052-0.148,1.518-0.358
				c5.23-2.39,15.593,3.127,15.543-5.268C34.534,257.985,24.283,261.735,18.704,259.996z"/>
			<path fill-rule="evenodd" clip-rule="evenodd" fill="#F4F4F5" d="M0.942,327.223C0.948,452.189,0.955,577.16,0.961,702.127"/>
			<path fill-rule="evenodd" clip-rule="evenodd" fill="#7689C4" d="M337.771,200.323c-27.359,0-54.73-0.435-82.074,0.22
				c-10.582,0.253-14.619-2.199-14.501-13.75c0.583-56.292,0.503-112.597,0.049-168.893c-0.083-10.346,2.979-13.453,13.33-13.371
				c56.297,0.446,112.6,0.522,168.894-0.043c11.664-0.119,13.848,4.269,13.771,14.701c-0.416,55.771-0.49,111.548,0.049,167.316
				c0.108,11.215-3.361,14.321-14.285,14.054C394.607,199.862,366.185,200.323,337.771,200.323z M338.379,38.743
				c-36.8,0.125-65.327,28.625-65.041,64.971c0.274,34.536,32.146,65.428,66.684,64.635c36.516-0.837,63.316-29.314,63.018-66.962
				C402.75,64.793,375.73,38.615,338.379,38.743z"/>
			<path fill-rule="evenodd" clip-rule="evenodd" fill="#F4F4F5" d="M487.806,623.561c-22.032,0-42.388-0.324-62.718,0.234
				c-5.002,0.137-13.733-4.756-14.095,6.467c-0.308,9.57,3.421,16.426,13.444,18.305c7.025,1.316,14.411,0.574,19.093-4.848
				c5.978-6.928,12.994-8.105,21.111-7.26c4.567,0.477,10.982-2.357,13.313,1.557c3.187,5.346-2.865,9.418-6.066,13.283
				c-12.972,15.66-30.288,22.508-50.098,21.947c-28.975-0.824-45.314-21.063-40.438-49.563
				c5.169-30.201,17.438-55.334,50.193-63.891c39.705-10.371,62.891,12.195,53.645,51.859c-0.2,0.861,0.607,1.959,1.222,3.748
				c6.964-3.217,5.653-10.523,7.676-15.594c13.012-32.654,47.073-50.113,77.6-39.223c20.869,7.445,32.602,43.01,20.043,60.393
				c-2.778,3.852-6.56,2.467-9.931,2.5c-17.36,0.176-34.73-0.119-52.084,0.232c-4.191,0.086-10.354-2.902-12.22,3.553
				c-1.862,6.449,0.133,12.953,5.363,17.133c9.049,7.229,19.825,6.994,27.272-0.873c8.936-9.441,19.174-6.402,29.263-7.051
				c5.851-0.371,7.364,1.74,4.882,7.5c-12.663,29.373-64.692,38.98-87.276,16.365C485.903,649.223,488.077,635.369,487.806,623.561z
				 M524.174,603.834c10.224,0,19.06,0.383,27.837-0.146c4.91-0.297,12.972,3.43,13.206-5.787
				c0.179-7.107-3.988-12.793-11.39-15.047C542.166,579.305,531.104,586.635,524.174,603.834z M417.394,603.834
				c10.341,0,19.247,0.361,28.102-0.146c4.574-0.266,11.766,3.25,12.759-4.834c0.923-7.512-3.183-13.082-10.477-15.674
				C435.728,578.896,425.005,585.676,417.394,603.834z"/>
			<path fill-rule="evenodd" clip-rule="evenodd" fill="#F4F4F5" d="M361.707,590.16c29.265,23.551,3.572,70.641-28.993,77.025
				c-26.989,5.291-54.468,1.85-81.719,2.611c-6.856,0.191-7.76-3.541-6.56-9.145c9.323-43.531,18.745-87.041,27.717-130.648
				c1.496-7.281,5.776-7.336,11.31-7.305c21.009,0.117,42.021-0.213,63.023,0.135c14.64,0.24,28.595,2.711,34.887,18.705
				c5.508,13.998-0.269,32.547-13.406,43.785C365.981,587.02,363.838,588.521,361.707,590.16z M302.23,643.07
				c7.322-0.373,14.939,0.404,21.903-1.375c12.006-3.066,19.137-11.967,17.872-24.328c-1.19-11.627-11.655-11.701-20.667-12.016
				c-6.813-0.236-13.746,0.709-20.435-0.221c-11.01-1.531-15.581,2.676-17.736,13.539
				C278.369,642.863,277.819,642.756,302.23,643.07z M321.537,549.809c-24.716-0.004-26.388,1.451-28.281,23.209
				c-0.29,3.338-1.141,6.484,3.55,6.391c14.011-0.283,28.232,2.189,41.984-1.455c9.138-2.424,13.826-9.961,12.759-19.068
				c-1.03-8.807-9.231-8.541-15.945-8.979C330.931,549.604,326.224,549.852,321.537,549.809z"/>
			<path fill-rule="evenodd" clip-rule="evenodd" fill="#F4F4F5" d="M258.877,524.438c-17.971,21.305-34.56,41.598-51.924,61.201
				c-5.363,6.055-5.878,10.967-2.775,17.986c8.052,18.203,15.084,36.867,23.362,54.965c4.429,9.682,1.551,11.674-7.917,11.334
				c-32.303-1.156-23.439,5.123-34.662-24.158c-2.779-7.244-5.141-14.643-8.62-24.633c-8.602,10.742-17.311,19.236-23.134,29.387
				c-11.766,20.512-29.092,22.451-51.594,17.428c18.042-21.547,34.875-42.682,52.938-62.703c7.118-7.893,8.105-14.184,3.803-23.578
				c-8.478-18.523-15.796-37.572-24.549-58.715c14.381,2.018,29.583-7.389,38.644,4.938c7.643,10.396,9.561,25.004,15.038,40.676
				c7.451-9.541,14.662-16.506,19.115-24.926C217.89,522.297,235.475,518.984,258.877,524.438z"/>
			<path fill-rule="evenodd" clip-rule="evenodd" fill="#F4F4F5" d="M594.747,489.311c-166.051,0-332.101,0-498.152,0
				c-0.006-0.975-0.009-1.949-0.015-2.922c166.09,0,332.181,0,498.271,0C594.817,487.361,594.784,488.336,594.747,489.311z"/>
			<path fill-rule="evenodd" clip-rule="evenodd" fill="#F4F4F5" d="M96.441,705.971c166.152,0,332.305,0,498.454,0
				c0.007,1.125,0.01,2.254,0.016,3.381c-166.124,0-332.246,0-498.371,0C96.509,708.225,96.475,707.096,96.441,705.971z"/>
			<path fill-rule="evenodd" clip-rule="evenodd" fill="#C8B269" d="M395.595,347.55c9.449-0.003,18.912,0.299,28.343-0.099
				c7.479-0.314,11.84,1.166,11.574,10.162c-0.234,8.006-1.366,12.771-11.161,12.472c-19.929-0.604-39.898-0.506-59.837-0.031
				c-8.586,0.204-10.733-3.46-10.749-11.245c-0.012-7.547,1.425-11.917,10.341-11.399
				C374.57,348.016,385.097,347.553,395.595,347.55z"/>
			<path fill-rule="evenodd" clip-rule="evenodd" fill="#C8B269" d="M283.254,347.559c9.443,0,18.899,0.349,28.321-0.105
				c8.016-0.385,12.608,0.919,12.339,10.825c-0.234,8.722-2.532,12.068-11.642,11.8c-19.39-0.574-38.813-0.395-58.215-0.064
				c-7.96,0.135-12.676-1.015-12.577-10.909c0.09-9.045,3.158-12.105,11.883-11.664
				C263.303,347.941,273.289,347.556,283.254,347.559z"/>
			<path fill-rule="evenodd" clip-rule="evenodd" fill="#C8B269" d="M394.9,402.496c-9.958,0-19.938-0.385-29.869,0.127
				c-7.704,0.395-11.599-1.4-11.3-10.203c0.262-7.716,2.152-11.46,10.742-11.26c19.907,0.466,39.84,0.414,59.751,0.016
				c7.979-0.161,11.22,2.369,11.287,10.699c0.068,8.083-2.328,11.315-10.744,10.772C414.852,402.006,404.859,402.496,394.9,402.496z
				"/>
			<path fill-rule="evenodd" clip-rule="evenodd" fill="#C8B269" d="M282.486,402.492c-9.946,0-19.911-0.379-29.833,0.121
				c-7.896,0.398-11.235-1.924-11.115-10.483c0.111-8.117,2.684-11.115,10.896-10.952c20.41,0.404,40.839,0.478,61.244-0.021
				c9.04-0.222,10.001,4.213,10.119,11.568c0.124,7.503-2.381,10.239-9.906,9.888C303.442,402.123,292.956,402.49,282.486,402.492z"
				/>
			<path fill-rule="evenodd" clip-rule="evenodd" fill="#C8B269" d="M283.121,301.434c-9.937,0.003-19.905-0.469-29.805,0.142
				c-8.74,0.543-11.994-2.304-11.797-11.411c0.182-8.302,3.069-10.856,11.106-10.689c19.868,0.419,39.763,0.531,59.622-0.04
				c8.978-0.256,11.689,2.764,11.636,11.63c-0.052,8.395-2.896,10.97-10.955,10.504
				C303.022,300.999,293.061,301.434,283.121,301.434z"/>
			<path fill-rule="evenodd" clip-rule="evenodd" fill="#C8B269" d="M282.905,335.796c-9.94,0.006-19.908-0.487-29.805,0.148
				c-9.129,0.589-11.538-3.115-11.584-11.803c-0.043-8.787,3.71-10.415,11.325-10.285c20.395,0.357,40.803,0.401,61.195-0.013
				c7.686-0.16,10.054,2.708,9.702,10.045c-0.317,6.634,0.318,12.614-9.458,12.043C303.855,335.318,293.366,335.791,282.905,335.796
				z"/>
			<path fill-rule="evenodd" clip-rule="evenodd" fill="#C8B269" d="M281.483,436.855c-9.416,0.006-18.862-0.465-28.238,0.143
				c-8.935,0.58-11.748-2.773-11.732-11.652c0.015-8.607,3.38-10.59,11.183-10.439c20.392,0.393,40.803,0.393,61.195,0.004
				c7.5-0.146,10.289,2.387,9.838,9.893c-0.389,6.49,0.595,12.707-9.302,12.184C303.476,436.402,292.466,436.85,281.483,436.855z"/>
			<path fill-rule="evenodd" clip-rule="evenodd" fill="#C8B269" d="M395.145,436.855c-9.462,0.006-18.939-0.352-28.38,0.115
				c-8.157,0.396-12.45-1.324-12.5-11.008c-0.049-9.586,3.951-11.26,12.238-11.068c19.438,0.447,38.899,0.406,58.338,0.021
				c7.554-0.154,10.268,2.492,9.965,10.008c-0.277,6.834-0.129,12.59-9.709,12.049C415.142,436.414,405.131,436.85,395.145,436.855z
				"/>
			<path fill-rule="evenodd" clip-rule="evenodd" fill="#C8B269" d="M393.457,335.796c-8.938,0.006-17.894-0.376-26.8,0.117
				c-8.293,0.457-12.315-1.563-12.396-11.118c-0.077-9.736,4.207-11.127,12.352-10.952c19.439,0.417,38.899,0.414,58.339,0.006
				c7.698-0.164,10.098,2.739,9.86,10.122c-0.226,6.945-0.33,12.478-9.826,11.954C414.507,335.34,403.968,335.791,393.457,335.796z"
				/>
			<path fill-rule="evenodd" clip-rule="evenodd" fill="#C8B269" d="M394.567,301.427c-9.986,0-19.987-0.321-29.955,0.111
				c-7.304,0.314-10.582-2.029-10.163-9.777c0.358-6.631-0.262-12.497,9.478-12.278c20.49,0.459,41.003,0.447,61.49,0.009
				c9.826-0.213,8.975,5.835,9.366,12.374c0.469,7.864-3.081,9.961-10.261,9.666C414.553,301.125,404.554,301.427,394.567,301.427z"
				/>
			<path fill-rule="evenodd" clip-rule="evenodd" fill="#303849" d="M642.242,453.023c-12.476-0.164-22.332-10.117-21.688-21.898
				c0.632-11.531,11.232-21.65,22.878-21.842c10.455-0.172,21.656,11.896,21.233,22.873
				C664.163,445.184,655.55,453.195,642.242,453.023z M657.736,431.262c-1.952-8.105-5.952-13.787-14.982-13.41
				c-8.747,0.367-13.817,5.182-13.629,13.98c0.2,9.373,5.733,15.121,15.017,14.268C652.188,445.355,656.879,439.49,657.736,431.262z
				"/>
			<path fill-rule="evenodd" clip-rule="evenodd" fill="#303849" d="M620.589,319.512c1.359-11.874,12.647-21.308,23.954-20.021
				c12.225,1.391,21.188,11.929,20.062,23.587c-1.268,13.132-11.661,21.052-25.373,19.331
				C627.42,340.928,619.277,330.93,620.589,319.512z M657.792,321.088c-1.983-8.86-6.388-14.439-16.041-13.591
				c-8.783,0.771-13.023,5.989-12.62,14.501c0.398,8.414,5.309,13.835,13.722,13.786
				C652.003,335.723,656.262,329.345,657.792,321.088z"/>
			<path fill-rule="evenodd" clip-rule="evenodd" fill="#303849" d="M620.592,540.506c1.369-11.994,14.525-23.316,25.465-20.24
				c11.137,3.127,19.763,9.893,18.566,23.568c-1.156,13.221-11.405,21.268-25.102,19.654
				C628.333,562.168,619.361,551.275,620.592,540.506z M642.189,528.283c-8.444,0.344-13.03,5.229-13.077,13.752
				c-0.049,9.266,5.357,15.033,14.369,14.699c7.957-0.297,13.925-5.977,13.885-14.109
				C657.326,533.967,652.253,528.186,642.189,528.283z"/>
			<path fill-rule="evenodd" clip-rule="evenodd" fill="#303849" d="M642.344,674.088c-11.988-0.117-21.811-10.133-21.715-22.141
				c0.086-10.838,12.11-22.379,22.757-21.842c11.008,0.555,21.675,12.096,21.274,23.02
				C664.185,666.16,655.611,674.217,642.344,674.088z M643.864,667.777c7.42-2.43,14.149-6.646,13.486-15.881
				c-0.573-8.016-5.709-13.316-14.458-13.131c-9.579,0.203-14.193,5.693-13.755,14.998
				C629.545,662.367,635.044,666.426,643.864,667.777z"/>
			<path fill-rule="evenodd" clip-rule="evenodd" fill="#303849" d="M664.666,210.696c-0.299,13.08-8.753,21.252-22.011,21.277
				c-13.225,0.031-22.418-8.756-22.125-21.14c0.28-11.865,10.698-22.253,22.202-22.138
				C654.458,188.813,664.925,199.314,664.666,210.696z M657.773,211.261c-1.255-7.718-4.494-13.813-13.443-14.256
				c-9.293-0.458-14.998,3.875-15.232,13.496c-0.207,8.48,4.37,14.111,12.771,14.749
				C651.143,225.95,655.858,220.004,657.773,211.261z"/>
			<path fill-rule="evenodd" clip-rule="evenodd" fill="#303849" d="M642.603,244.514c13.064-0.093,21.675,8.167,22.061,21.16
				c0.324,10.946-10.313,22.323-21.339,22.826c-10.698,0.487-22.604-10.933-22.695-21.774
				C620.536,255.913,631.737,244.591,642.603,244.514z M657.866,265.788c-1.206-7.1-5.243-13.249-13.392-13.918
				c-8.836-0.725-14.951,3.988-15.393,13.524c-0.395,8.502,3.815,13.921,12.53,14.649
				C651.065,280.835,655.75,275.32,657.866,265.788z"/>
			<path fill-rule="evenodd" clip-rule="evenodd" fill="#303849" d="M642.954,576.105c13.043,0.102,21.524,8.496,21.712,21.494
				c0.16,10.945-10.724,22.227-21.693,22.488c-10.702,0.256-22.471-11.41-22.344-22.146
				C620.755,587.049,632.033,576.021,642.954,576.105z M643.611,582.572c-8.364,0.994-13.811,5.096-14.446,13.645
				c-0.697,9.352,3.944,14.945,13.425,15.324c8.633,0.35,14.07-4.863,14.727-12.906C658.06,589.568,651.88,584.75,643.611,582.572z"
				/>
			<path fill-rule="evenodd" clip-rule="evenodd" fill="#303849" d="M642.525,465.574c13.055-0.141,21.719,8.105,22.138,21.074
				c0.352,10.934-10.255,22.363-21.262,22.918c-10.646,0.533-22.637-10.898-22.772-21.715
				C620.489,477.041,631.647,465.691,642.525,465.574z M657.872,486.836c-1.366-7.314-5.53-13.465-13.813-14.186
				c-8.417-0.732-14.079,4.145-14.859,12.854c-0.852,9.523,3.91,15.193,13.563,15.494
				C651.59,501.277,655.889,495.68,657.872,486.836z"/>
			<path fill-rule="evenodd" clip-rule="evenodd" fill="#303849" d="M664.666,708.629c-0.059,10.865-11.358,22.057-22.208,21.992
				c-10.782-0.064-22.299-12.021-21.836-22.668c0.476-10.957,11.898-21.619,22.838-21.314
				C656.499,687.004,664.734,695.541,664.666,708.629z M657.771,708.436c-1.209-8.451-5.799-14.646-14.727-14.916
				c-8.334-0.252-13.429,5.154-13.909,13.607c-0.481,8.447,3.556,13.98,12.349,14.779
				C650.954,722.766,655.667,717.33,657.771,708.436z"/>
			<path fill-rule="evenodd" clip-rule="evenodd" fill="#303849" d="M664.666,377.574c-0.28,10.81-11.979,21.86-22.721,21.452
				c-10.165-0.382-21.122-11.484-21.316-21.594c-0.22-11.411,11.8-22.933,23.35-22.391
				C656.836,355.646,665.002,364.54,664.666,377.574z M657.789,375.911c-1.928-7.985-6.399-13.878-14.946-13.69
				c-9.422,0.203-14.307,6.192-13.705,15.618c0.573,8.944,6.165,13.135,14.847,12.651
				C652.888,389.99,656.506,383.973,657.789,375.911z"/>
			<path fill-rule="evenodd" clip-rule="evenodd" fill="#303849" d="M52.101,596.955c-0.052,11.586-11.192,24.496-21.206,22.617
				c-11.507-2.154-20.179-8.576-20.17-22.242c0.006-13.801,7.55-21.498,21.308-21.236C44.915,576.338,52.16,583.869,52.101,596.955z
				 M31,582.57c-8.102,2.141-14.369,6.232-13.783,15.813c0.531,8.66,6.088,13.193,14.372,13.125
				c8.346-0.068,13.783-4.848,14.002-13.475C45.828,588.631,39.728,584.34,31,582.57z"/>
			<path fill-rule="evenodd" clip-rule="evenodd" fill="#303849" d="M10.771,486.586c-0.114-13.158,7.041-20.719,19.902-21.023
				c13.792-0.326,21.397,7.324,21.478,21.07c0.077,13.656-8.503,20.143-20.016,22.385C22.111,510.973,10.867,498.17,10.771,486.586z
				 M31.802,472.225c-8.596,1.471-14.711,5.656-14.585,15.078c0.117,8.57,5.342,13.459,13.746,13.711
				c8.395,0.254,13.956-4.338,14.587-12.836C46.245,478.814,40.338,474.234,31.802,472.225z"/>
			<path fill-rule="evenodd" clip-rule="evenodd" fill="#303849" d="M10.777,376.112c-0.124-13.215,6.973-20.756,19.84-21.08
				c13.805-0.348,21.428,7.285,21.533,21.018c0.105,13.65-8.447,20.164-19.963,22.434C22.164,400.46,10.882,387.689,10.777,376.112z
				 M45.911,375.048c-1.899-7.405-6.372-13.567-15.667-12.768c-8.182,0.703-13.246,6.159-13.005,14.609
				c0.265,9.45,6.233,14.045,15.325,13.527C41.057,389.932,45.341,384.574,45.911,375.048z"/>
			<path fill-rule="evenodd" clip-rule="evenodd" fill="#303849" d="M32.091,563.568c-13.228,0.266-20.867-6.76-21.314-19.596
				c-0.41-11.729,9.483-23.684,20-24.174c10.282-0.48,21.249,11.281,21.32,22.863C52.181,555.779,44.977,563.311,32.091,563.568z
				 M45.853,542.049c-1.193-8.824-6.082-14.311-15.402-13.723c-8.358,0.531-13.545,5.699-13.277,14.295
				c0.293,9.314,6.217,14.521,15.192,14.039C40.526,556.223,45.347,550.85,45.853,542.049z"/>
			<path fill-rule="evenodd" clip-rule="evenodd" fill="#303849" d="M31.666,453.039c-13.083,0.094-20.624-7.129-20.895-20.014
				c-0.244-11.68,10.014-23.631,20.432-23.807c10.326-0.176,20.972,11.717,20.898,23.344
				C52.018,445.52,44.61,452.943,31.666,453.039z M45.875,431.742c-1.015-8.061-5.135-13.564-13.783-13.844
				c-9.388-0.307-14.831,5.012-14.877,14.184c-0.049,9.387,6.119,14.473,15.029,14.1C40.428,445.836,45.193,440.408,45.875,431.742z
				"/>
			<path fill-rule="evenodd" clip-rule="evenodd" fill="#303849" d="M52.098,653.93c-0.207,12.912-7.71,20.211-20.741,20.176
				c-13.607-0.033-21.074-7.984-20.583-21.912c0.376-10.736,11.01-21.986,20.734-21.934
				C41.871,630.309,52.283,642.281,52.098,653.93z M45.865,652.869c-1-8.787-5.771-14.418-15.094-14.123
				c-8.414,0.271-13.613,5.342-13.598,13.969c0.021,9.406,5.863,14.75,14.788,14.486C40.015,666.963,45.202,661.797,45.865,652.869z
				"/>
			<path fill-rule="evenodd" clip-rule="evenodd" fill="#303849" d="M1.205,315.626c0.102-0.679,0.364-1.286,0.786-1.829
				c5.277,1.19,8.704-1.619,12.444-4.917c14.452-12.74,24.821-12.518,34.184,0.226c6.822,9.277,4.219,24.241-5.326,30.619
				c-11.698,7.818-24.565,2.831-32.661-12.651c2.507,0.003,5.021,0.006,7.528,0.006c4.046,7.328,10.036,10.745,18.196,7.741
				c5.792-2.131,9.394-6.625,9.428-13.153c0.034-6.443-3.198-11.442-9.012-13.44c-7.747-2.662-14.424-0.336-18.634,7.238
				C12.514,317.486,6.857,316.32,1.205,315.626z"/>
			<path fill-rule="evenodd" clip-rule="evenodd" fill="#303849" d="M18.571,205.384c-5.41,0.962-10.825,2.167-16.139-0.412
				c5.641-1.53,9.958-4.854,14.271-8.838c11.084-10.244,22.631-9.846,31.238,0.286c6.761,7.957,5.333,24.184-2.738,31.135
				c-9.185,7.909-23.091,6.136-31.526-4.251c-1.573-1.937-2.242-4.607-3.334-6.939c2.727,0.06,5.462,0.12,8.198,0.179
				c5.918,10.805,14.184,12.159,22.998,4.294c6.415-5.726,6.467-13.703,0.114-19.434C33.029,193.626,24.619,194.505,18.571,205.384z
				"/>
			<path fill-rule="evenodd" clip-rule="evenodd" fill="#303849" d="M18.213,701.893c-2.522,0.068-5.045,0.137-7.568,0.201
				c3.778-12.832,12.969-17.119,25.333-15.25c9.246,1.396,14.699,7.213,16.053,16.645c1.619,11.27-2.748,19.596-12.919,24.305
				c-12.996,6.018-20.716-0.156-25.407-12.123c1.431-0.244,2.868-0.486,4.302-0.734c7.331,7.686,15.455,11.137,23.976,2.342
				c5.937-6.131,5.588-13.826-0.54-19.4C32.674,689.902,24.529,692.246,18.213,701.893z"/>
			<path fill-rule="evenodd" clip-rule="evenodd" fill="#A0A0A1" d="M18.213,701.893c6.316-9.646,14.461-11.99,23.229-4.016
				c6.128,5.574,6.477,13.27,0.54,19.4c-8.521,8.795-16.645,5.344-23.976-2.342c0.321-0.4,0.567-0.902,0.972-1.178
				c4.873-3.35,15.507,2.029,15.463-5.592C34.386,699.057,23.66,704.527,18.213,701.893z"/>
			<path fill-rule="evenodd" clip-rule="evenodd" fill="#A0A0A1" d="M18.571,205.384c6.048-10.879,14.458-11.758,23.082-3.98
				c6.353,5.731,6.301,13.708-0.114,19.434c-8.814,7.865-17.08,6.511-22.998-4.294c1.523-0.122,3.047-0.25,4.571-0.364
				c4.783-0.361,11.908,1.076,11.538-5.863c-0.299-5.656-7.177-3.921-11.525-4.418C21.605,205.727,20.088,205.555,18.571,205.384z"
				/>
			<path fill-rule="evenodd" clip-rule="evenodd" fill="#A0A0A1" d="M18.139,315.466c4.209-7.575,10.887-9.9,18.634-7.238
				c5.814,1.998,9.046,6.998,9.012,13.44c-0.034,6.529-3.636,11.022-9.428,13.153c-8.161,3.004-14.15-0.413-18.196-7.741
				c2.066-0.151,4.126-0.302,6.19-0.462c4.49-0.345,10.788,0.494,10.202-6.082c-0.484-5.422-6.551-3.31-10.354-3.976
				C22.176,316.207,20.159,315.83,18.139,315.466z"/>
			<path fill-rule="evenodd" clip-rule="evenodd" fill="#F4F4F5" d="M338.379,38.743c37.352-0.128,64.371,26.05,64.661,62.644
				c0.299,37.647-26.502,66.125-63.018,66.962c-34.539,0.792-66.41-30.1-66.684-64.635
				C273.052,67.368,301.579,38.868,338.379,38.743z M370.382,156.961c0-34.411-0.04-65.818,0.022-97.225
				c0.019-10.396-5.274-8.116-11.032-4.788c-24.571,14.203-49.068,28.536-73.722,42.593c-6.498,3.706-7.408,6.626-0.373,10.636
				C312.648,123.769,339.939,139.494,370.382,156.961z"/>
			<path fill-rule="evenodd" clip-rule="evenodd" fill="#3E4C6B" d="M524.174,603.834c6.93-17.199,17.992-24.529,29.653-20.98
				c7.401,2.254,11.568,7.939,11.39,15.047c-0.234,9.217-8.296,5.49-13.206,5.787C543.233,604.217,534.397,603.834,524.174,603.834z
				"/>
			<path fill-rule="evenodd" clip-rule="evenodd" fill="#3E4C6B" d="M417.394,603.834c7.611-18.158,18.334-24.938,30.384-20.654
				c7.294,2.592,11.399,8.162,10.477,15.674c-0.993,8.084-8.185,4.568-12.759,4.834
				C436.641,604.195,427.734,603.834,417.394,603.834z"/>
			<path fill-rule="evenodd" clip-rule="evenodd" fill="#3E4C6B" d="M302.23,643.07c-24.411-0.314-23.861-0.207-19.063-24.4
				c2.156-10.863,6.726-15.07,17.736-13.539c6.689,0.93,13.623-0.016,20.435,0.221c9.012,0.314,19.476,0.389,20.667,12.016
				c1.265,12.361-5.866,21.262-17.872,24.328C317.169,643.475,309.552,642.697,302.23,643.07z"/>
			<path fill-rule="evenodd" clip-rule="evenodd" fill="#3E4C6B" d="M321.537,549.826c4.688,0.025,9.394-0.223,14.066,0.08
				c6.714,0.438,14.915,0.172,15.945,8.979c1.067,9.107-3.621,16.645-12.759,19.068c-13.752,3.645-27.973,1.172-41.984,1.455
				c-4.691,0.094-3.84-3.053-3.55-6.391C295.149,551.26,296.821,549.805,321.537,549.826z"/>
			<path fill-rule="evenodd" clip-rule="evenodd" fill="#A0A0A1" d="M657.736,431.262c-0.857,8.229-5.548,14.094-13.595,14.838
				c-9.283,0.854-14.816-4.895-15.017-14.268c-0.188-8.799,4.882-13.613,13.629-13.98
				C651.784,417.475,655.784,423.156,657.736,431.262z"/>
			<path fill-rule="evenodd" clip-rule="evenodd" fill="#A0A0A1" d="M657.792,321.088c-1.53,8.256-5.789,14.634-14.939,14.696
				c-8.413,0.049-13.323-5.373-13.722-13.786c-0.403-8.512,3.837-13.73,12.62-14.501
				C651.404,306.649,655.809,312.228,657.792,321.088z"/>
			<path fill-rule="evenodd" clip-rule="evenodd" fill="#A0A0A1" d="M642.189,528.283c10.063-0.098,15.137,5.684,15.177,14.342
				c0.04,8.133-5.928,13.813-13.885,14.109c-9.012,0.334-14.418-5.434-14.369-14.699
				C629.159,533.512,633.745,528.627,642.189,528.283z"/>
			<path fill-rule="evenodd" clip-rule="evenodd" fill="#A0A0A1" d="M643.864,667.777c-8.82-1.352-14.319-5.41-14.727-14.014
				c-0.438-9.305,4.176-14.795,13.755-14.998c8.749-0.186,13.885,5.115,14.458,13.131
				C658.014,661.131,651.284,665.348,643.864,667.777z"/>
			<path fill-rule="evenodd" clip-rule="evenodd" fill="#A0A0A1" d="M657.773,211.261c-1.915,8.744-6.631,14.689-15.905,13.988
				c-8.4-0.637-12.978-6.269-12.771-14.749c0.234-9.621,5.939-13.954,15.232-13.496
				C653.279,197.447,656.519,203.543,657.773,211.261z"/>
			<path fill-rule="evenodd" clip-rule="evenodd" fill="#A0A0A1" d="M657.866,265.788c-2.116,9.533-6.801,15.047-16.254,14.255
				c-8.715-0.728-12.925-6.147-12.53-14.649c0.441-9.536,6.557-14.249,15.393-13.524
				C652.623,252.539,656.66,258.688,657.866,265.788z"/>
			<path fill-rule="evenodd" clip-rule="evenodd" fill="#A0A0A1" d="M643.611,582.572c8.269,2.178,14.448,6.996,13.705,16.063
				c-0.656,8.043-6.094,13.256-14.727,12.906c-9.48-0.379-14.122-5.973-13.425-15.324
				C629.801,587.668,635.247,583.566,643.611,582.572z"/>
			<path fill-rule="evenodd" clip-rule="evenodd" fill="#A0A0A1" d="M657.872,486.836c-1.983,8.844-6.282,14.441-15.109,14.162
				c-9.653-0.301-14.415-5.971-13.563-15.494c0.78-8.709,6.442-13.586,14.859-12.854
				C652.342,473.371,656.506,479.521,657.872,486.836z"/>
			<path fill-rule="evenodd" clip-rule="evenodd" fill="#A0A0A1" d="M657.771,708.436c-2.104,8.895-6.816,14.33-16.287,13.471
				c-8.793-0.799-12.83-6.332-12.349-14.779c0.48-8.453,5.575-13.859,13.909-13.607
				C651.972,693.789,656.562,699.984,657.771,708.436z"/>
			<path fill-rule="evenodd" clip-rule="evenodd" fill="#A0A0A1" d="M657.789,375.911c-1.283,8.062-4.901,14.079-13.805,14.579
				c-8.682,0.484-14.273-3.707-14.847-12.651c-0.602-9.425,4.283-15.415,13.705-15.618
				C651.39,362.033,655.861,367.926,657.789,375.911z"/>
			<path fill-rule="evenodd" clip-rule="evenodd" fill="#A0A0A1" d="M31,582.57c8.728,1.77,14.829,6.061,14.591,15.463
				c-0.219,8.627-5.656,13.406-14.002,13.475c-8.284,0.068-13.841-4.465-14.372-13.125C16.631,588.803,22.898,584.711,31,582.57z"/>
			<path fill-rule="evenodd" clip-rule="evenodd" fill="#A0A0A1" d="M31.802,472.225c8.537,2.01,14.443,6.59,13.749,15.953
				c-0.632,8.498-6.193,13.09-14.587,12.836c-8.404-0.252-13.629-5.141-13.746-13.711C17.09,477.881,23.206,473.695,31.802,472.225z
				"/>
			<path fill-rule="evenodd" clip-rule="evenodd" fill="#A0A0A1" d="M45.911,375.048c-0.57,9.526-4.854,14.884-13.348,15.368
				c-9.092,0.518-15.06-4.077-15.325-13.527c-0.241-8.45,4.823-13.906,13.005-14.609C39.54,361.481,44.012,367.643,45.911,375.048z"
				/>
			<path fill-rule="evenodd" clip-rule="evenodd" fill="#A0A0A1" d="M45.853,542.049c-0.505,8.801-5.326,14.174-13.486,14.611
				c-8.975,0.482-14.899-4.725-15.192-14.039c-0.269-8.596,4.919-13.764,13.277-14.295
				C39.771,527.738,44.659,533.225,45.853,542.049z"/>
			<path fill-rule="evenodd" clip-rule="evenodd" fill="#A0A0A1" d="M45.875,431.742c-0.682,8.666-5.447,14.094-13.632,14.439
				c-8.91,0.373-15.078-4.713-15.029-14.1c0.046-9.172,5.49-14.49,14.877-14.184C40.739,418.178,44.86,423.682,45.875,431.742z"/>
			<path fill-rule="evenodd" clip-rule="evenodd" fill="#A0A0A1" d="M45.865,652.869c-0.663,8.928-5.851,14.094-13.903,14.332
				c-8.925,0.264-14.767-5.08-14.788-14.486c-0.016-8.627,5.184-13.697,13.598-13.969C40.095,638.451,44.866,644.082,45.865,652.869
				z"/>
			<path fill-rule="evenodd" clip-rule="evenodd" fill="#7689C4" d="M370.382,156.961c-30.442-17.467-57.734-33.192-85.105-48.784
				c-7.035-4.009-6.125-6.93,0.373-10.636c24.654-14.057,49.151-28.39,73.722-42.593c5.758-3.328,11.051-5.608,11.032,4.788
				C370.342,91.143,370.382,122.55,370.382,156.961z"/>
		</g>
	</g>
</g>
</svg>
